<svg width="16" height="16" viewBox="0 0 16 16" fill="none" xmlns="http://www.w3.org/2000/svg">
<path d="M12.9038 5.07775L10.2646 2.70248C9.51266 2.02577 9.13671 1.68741 8.67542 1.5104L8.66927 3.33338C8.66927 4.90473 8.66927 5.69041 9.15743 6.17856C9.64558 6.66672 10.4313 6.66672 12.0026 6.66672H14.3893C14.1476 6.19724 13.7149 5.80774 12.9038 5.07775Z" fill="white" fill-opacity="0.88"/>
<path fill-rule="evenodd" clip-rule="evenodd" d="M6.66927 14.6666H9.33594C11.8501 14.6666 13.1072 14.6666 13.8882 13.8856C14.6693 13.1046 14.6693 11.8475 14.6693 9.33331V9.04191C14.6693 8.46004 14.6693 8.0229 14.6409 7.66672H12.0026L11.9394 7.66672C11.208 7.66678 10.5616 7.66683 10.0406 7.59678C9.47583 7.52085 8.91117 7.34652 8.45032 6.88567C7.98947 6.42482 7.81514 5.86016 7.73921 5.29542C7.66916 4.77441 7.66921 4.12803 7.66927 3.39663L7.67543 1.50702C7.67561 1.45206 7.68031 1.39771 7.68928 1.34442C7.41687 1.33331 7.09314 1.33331 6.68913 1.33331C4.16173 1.33331 2.89803 1.33331 2.11699 2.11436C1.33594 2.89541 1.33594 4.15249 1.33594 6.66665V9.33331C1.33594 11.8475 1.33594 13.1046 2.11699 13.8856C2.89803 14.6666 4.15511 14.6666 6.66927 14.6666ZM6.01124 8.63521C5.81891 8.4549 5.51963 8.4549 5.3273 8.63521L3.99397 9.88521C3.79251 10.0741 3.7823 10.3905 3.97117 10.592C4.16003 10.7934 4.47645 10.8036 4.67791 10.6147L5.16927 10.1541L5.16927 12.3333C5.16927 12.6095 5.39313 12.8333 5.66927 12.8333C5.94541 12.8333 6.16927 12.6095 6.16927 12.3333L6.16927 10.1541L6.66063 10.6147C6.86209 10.8036 7.17851 10.7934 7.36737 10.592C7.55624 10.3905 7.54603 10.0741 7.34458 9.88521L6.01124 8.63521Z" fill="white" fill-opacity="0.88"/>
</svg>
